<mxfile host="Electron" modified="2023-08-22T13:32:53.963Z" agent="Mozilla/5.0 (Windows NT 10.0; Win64; x64) AppleWebKit/537.36 (KHTML, like Gecko) draw.io/21.6.8 Chrome/114.0.5735.289 Electron/25.5.0 Safari/537.36" etag="CH8IfZpLVRt9xlBvJ0ve" version="21.6.8" type="device">
  <diagram name="Page-1" id="LNZUzb7gnyToXk9yUa0A">
    <mxGraphModel dx="1674" dy="836" grid="1" gridSize="10" guides="1" tooltips="1" connect="1" arrows="1" fold="1" page="1" pageScale="1" pageWidth="850" pageHeight="1100" math="0" shadow="0">
      <root>
        <mxCell id="0" />
        <mxCell id="1" parent="0" />
        <mxCell id="flWIEQ2DEUn-1Dzcpg8S-10" value="" style="edgeStyle=orthogonalEdgeStyle;rounded=0;orthogonalLoop=1;jettySize=auto;html=1;" edge="1" parent="1" source="flWIEQ2DEUn-1Dzcpg8S-11" target="flWIEQ2DEUn-1Dzcpg8S-13">
          <mxGeometry relative="1" as="geometry" />
        </mxCell>
        <mxCell id="flWIEQ2DEUn-1Dzcpg8S-11" value="start" style="ellipse;whiteSpace=wrap;html=1;fillColor=#008a00;fontColor=#ffffff;strokeColor=#005700;" vertex="1" parent="1">
          <mxGeometry x="40" y="550" width="40" height="40" as="geometry" />
        </mxCell>
        <mxCell id="flWIEQ2DEUn-1Dzcpg8S-12" value="" style="edgeStyle=orthogonalEdgeStyle;rounded=0;orthogonalLoop=1;jettySize=auto;html=1;" edge="1" parent="1" source="flWIEQ2DEUn-1Dzcpg8S-13" target="flWIEQ2DEUn-1Dzcpg8S-16">
          <mxGeometry relative="1" as="geometry" />
        </mxCell>
        <mxCell id="flWIEQ2DEUn-1Dzcpg8S-13" value="navigates to website" style="rounded=0;whiteSpace=wrap;html=1;" vertex="1" parent="1">
          <mxGeometry x="120" y="550" width="100" height="40" as="geometry" />
        </mxCell>
        <mxCell id="flWIEQ2DEUn-1Dzcpg8S-14" value="" style="edgeStyle=orthogonalEdgeStyle;rounded=0;orthogonalLoop=1;jettySize=auto;html=1;" edge="1" parent="1" source="flWIEQ2DEUn-1Dzcpg8S-16" target="flWIEQ2DEUn-1Dzcpg8S-19">
          <mxGeometry relative="1" as="geometry" />
        </mxCell>
        <mxCell id="flWIEQ2DEUn-1Dzcpg8S-15" value="" style="edgeStyle=orthogonalEdgeStyle;rounded=0;orthogonalLoop=1;jettySize=auto;html=1;" edge="1" parent="1" source="flWIEQ2DEUn-1Dzcpg8S-16" target="flWIEQ2DEUn-1Dzcpg8S-21">
          <mxGeometry relative="1" as="geometry">
            <Array as="points">
              <mxPoint x="320" y="540" />
              <mxPoint x="320" y="540" />
            </Array>
          </mxGeometry>
        </mxCell>
        <mxCell id="flWIEQ2DEUn-1Dzcpg8S-16" value="enters credentials" style="whiteSpace=wrap;html=1;rounded=0;" vertex="1" parent="1">
          <mxGeometry x="275" y="550" width="100" height="40" as="geometry" />
        </mxCell>
        <mxCell id="flWIEQ2DEUn-1Dzcpg8S-17" style="edgeStyle=orthogonalEdgeStyle;rounded=0;orthogonalLoop=1;jettySize=auto;html=1;exitX=1;exitY=0.5;exitDx=0;exitDy=0;entryX=0.5;entryY=1;entryDx=0;entryDy=0;" edge="1" parent="1" source="flWIEQ2DEUn-1Dzcpg8S-19" target="flWIEQ2DEUn-1Dzcpg8S-26">
          <mxGeometry relative="1" as="geometry" />
        </mxCell>
        <mxCell id="flWIEQ2DEUn-1Dzcpg8S-18" style="edgeStyle=orthogonalEdgeStyle;rounded=0;orthogonalLoop=1;jettySize=auto;html=1;exitX=0.5;exitY=1;exitDx=0;exitDy=0;" edge="1" parent="1" source="flWIEQ2DEUn-1Dzcpg8S-19" target="flWIEQ2DEUn-1Dzcpg8S-34">
          <mxGeometry relative="1" as="geometry" />
        </mxCell>
        <mxCell id="flWIEQ2DEUn-1Dzcpg8S-19" value="corrrect details?" style="rhombus;whiteSpace=wrap;html=1;rounded=0;" vertex="1" parent="1">
          <mxGeometry x="445" y="535" width="70" height="70" as="geometry" />
        </mxCell>
        <mxCell id="flWIEQ2DEUn-1Dzcpg8S-20" value="" style="edgeStyle=orthogonalEdgeStyle;rounded=0;orthogonalLoop=1;jettySize=auto;html=1;" edge="1" parent="1" source="flWIEQ2DEUn-1Dzcpg8S-21" target="flWIEQ2DEUn-1Dzcpg8S-23">
          <mxGeometry relative="1" as="geometry">
            <Array as="points">
              <mxPoint x="320" y="330" />
            </Array>
          </mxGeometry>
        </mxCell>
        <mxCell id="flWIEQ2DEUn-1Dzcpg8S-21" value="&lt;font style=&quot;font-size: 12px;&quot;&gt;forgot password?&lt;/font&gt;" style="rhombus;whiteSpace=wrap;html=1;rounded=0;" vertex="1" parent="1">
          <mxGeometry x="275" y="390" width="90" height="80" as="geometry" />
        </mxCell>
        <mxCell id="flWIEQ2DEUn-1Dzcpg8S-22" style="edgeStyle=orthogonalEdgeStyle;rounded=0;orthogonalLoop=1;jettySize=auto;html=1;exitX=0.5;exitY=0;exitDx=0;exitDy=0;entryX=1;entryY=0.5;entryDx=0;entryDy=0;" edge="1" parent="1" source="flWIEQ2DEUn-1Dzcpg8S-23" target="flWIEQ2DEUn-1Dzcpg8S-42">
          <mxGeometry relative="1" as="geometry" />
        </mxCell>
        <mxCell id="flWIEQ2DEUn-1Dzcpg8S-23" value="reset password" style="whiteSpace=wrap;html=1;rounded=0;" vertex="1" parent="1">
          <mxGeometry x="740" y="310" width="110" height="40" as="geometry" />
        </mxCell>
        <mxCell id="flWIEQ2DEUn-1Dzcpg8S-24" style="edgeStyle=orthogonalEdgeStyle;rounded=0;orthogonalLoop=1;jettySize=auto;html=1;exitX=0;exitY=0.5;exitDx=0;exitDy=0;entryX=1;entryY=0.5;entryDx=0;entryDy=0;" edge="1" parent="1" source="flWIEQ2DEUn-1Dzcpg8S-26" target="flWIEQ2DEUn-1Dzcpg8S-30">
          <mxGeometry relative="1" as="geometry" />
        </mxCell>
        <mxCell id="flWIEQ2DEUn-1Dzcpg8S-53" style="edgeStyle=orthogonalEdgeStyle;rounded=0;orthogonalLoop=1;jettySize=auto;html=1;exitX=1;exitY=0.5;exitDx=0;exitDy=0;entryX=0.5;entryY=1;entryDx=0;entryDy=0;" edge="1" parent="1" source="flWIEQ2DEUn-1Dzcpg8S-26" target="flWIEQ2DEUn-1Dzcpg8S-23">
          <mxGeometry relative="1" as="geometry" />
        </mxCell>
        <mxCell id="flWIEQ2DEUn-1Dzcpg8S-26" value="failed 5 &lt;br&gt;times?" style="rhombus;whiteSpace=wrap;html=1;" vertex="1" parent="1">
          <mxGeometry x="600" y="390" width="80" height="80" as="geometry" />
        </mxCell>
        <mxCell id="flWIEQ2DEUn-1Dzcpg8S-27" value="no" style="text;html=1;strokeColor=none;fillColor=none;align=center;verticalAlign=middle;whiteSpace=wrap;rounded=0;" vertex="1" parent="1">
          <mxGeometry x="560" y="540" width="60" height="30" as="geometry" />
        </mxCell>
        <mxCell id="flWIEQ2DEUn-1Dzcpg8S-28" value="yes" style="text;html=1;strokeColor=none;fillColor=none;align=center;verticalAlign=middle;whiteSpace=wrap;rounded=0;" vertex="1" parent="1">
          <mxGeometry x="720" y="400" width="60" height="30" as="geometry" />
        </mxCell>
        <mxCell id="flWIEQ2DEUn-1Dzcpg8S-29" style="edgeStyle=orthogonalEdgeStyle;rounded=0;orthogonalLoop=1;jettySize=auto;html=1;exitX=0.5;exitY=1;exitDx=0;exitDy=0;" edge="1" parent="1" source="flWIEQ2DEUn-1Dzcpg8S-30" target="flWIEQ2DEUn-1Dzcpg8S-19">
          <mxGeometry relative="1" as="geometry" />
        </mxCell>
        <mxCell id="flWIEQ2DEUn-1Dzcpg8S-30" value="retry password" style="rounded=0;whiteSpace=wrap;html=1;" vertex="1" parent="1">
          <mxGeometry x="425" y="415" width="110" height="30" as="geometry" />
        </mxCell>
        <mxCell id="flWIEQ2DEUn-1Dzcpg8S-31" value="yes" style="text;html=1;strokeColor=none;fillColor=none;align=center;verticalAlign=middle;whiteSpace=wrap;rounded=0;" vertex="1" parent="1">
          <mxGeometry x="480" y="470" width="60" height="30" as="geometry" />
        </mxCell>
        <mxCell id="flWIEQ2DEUn-1Dzcpg8S-32" value="no" style="text;html=1;strokeColor=none;fillColor=none;align=center;verticalAlign=middle;whiteSpace=wrap;rounded=0;" vertex="1" parent="1">
          <mxGeometry x="540" y="400" width="60" height="30" as="geometry" />
        </mxCell>
        <mxCell id="flWIEQ2DEUn-1Dzcpg8S-33" value="" style="edgeStyle=orthogonalEdgeStyle;rounded=0;orthogonalLoop=1;jettySize=auto;html=1;" edge="1" parent="1" source="flWIEQ2DEUn-1Dzcpg8S-34" target="flWIEQ2DEUn-1Dzcpg8S-39">
          <mxGeometry relative="1" as="geometry" />
        </mxCell>
        <mxCell id="flWIEQ2DEUn-1Dzcpg8S-34" value="navigate to admin page" style="rounded=0;whiteSpace=wrap;html=1;" vertex="1" parent="1">
          <mxGeometry x="420" y="670" width="120" height="40" as="geometry" />
        </mxCell>
        <mxCell id="flWIEQ2DEUn-1Dzcpg8S-35" value="check / cancel bookings" style="rounded=0;whiteSpace=wrap;html=1;" vertex="1" parent="1">
          <mxGeometry x="240" y="670" width="100" height="40" as="geometry" />
        </mxCell>
        <mxCell id="flWIEQ2DEUn-1Dzcpg8S-36" value="update inventory" style="whiteSpace=wrap;html=1;rounded=0;" vertex="1" parent="1">
          <mxGeometry x="620" y="670" width="100" height="40" as="geometry" />
        </mxCell>
        <mxCell id="flWIEQ2DEUn-1Dzcpg8S-37" value="" style="endArrow=none;dashed=1;html=1;dashPattern=1 3;strokeWidth=2;rounded=0;exitX=1;exitY=0.5;exitDx=0;exitDy=0;entryX=0;entryY=0.5;entryDx=0;entryDy=0;" edge="1" parent="1" source="flWIEQ2DEUn-1Dzcpg8S-35" target="flWIEQ2DEUn-1Dzcpg8S-34">
          <mxGeometry width="50" height="50" relative="1" as="geometry">
            <mxPoint x="360" y="710" as="sourcePoint" />
            <mxPoint x="410" y="660" as="targetPoint" />
          </mxGeometry>
        </mxCell>
        <mxCell id="flWIEQ2DEUn-1Dzcpg8S-38" value="" style="endArrow=none;dashed=1;html=1;dashPattern=1 3;strokeWidth=2;rounded=0;entryX=0;entryY=0.5;entryDx=0;entryDy=0;" edge="1" parent="1" source="flWIEQ2DEUn-1Dzcpg8S-34" target="flWIEQ2DEUn-1Dzcpg8S-36">
          <mxGeometry width="50" height="50" relative="1" as="geometry">
            <mxPoint x="540" y="740" as="sourcePoint" />
            <mxPoint x="610.7106781186548" y="690" as="targetPoint" />
          </mxGeometry>
        </mxCell>
        <mxCell id="flWIEQ2DEUn-1Dzcpg8S-39" value="end" style="ellipse;whiteSpace=wrap;html=1;rounded=0;fillColor=#a20025;fontColor=#ffffff;strokeColor=#6F0000;" vertex="1" parent="1">
          <mxGeometry x="460" y="750" width="40" height="40" as="geometry" />
        </mxCell>
        <mxCell id="flWIEQ2DEUn-1Dzcpg8S-40" value="yes" style="text;html=1;strokeColor=none;fillColor=none;align=center;verticalAlign=middle;whiteSpace=wrap;rounded=0;" vertex="1" parent="1">
          <mxGeometry x="480" y="620" width="60" height="30" as="geometry" />
        </mxCell>
        <mxCell id="flWIEQ2DEUn-1Dzcpg8S-41" style="edgeStyle=orthogonalEdgeStyle;rounded=0;orthogonalLoop=1;jettySize=auto;html=1;exitX=0;exitY=0.5;exitDx=0;exitDy=0;entryX=1;entryY=0.5;entryDx=0;entryDy=0;" edge="1" parent="1" source="flWIEQ2DEUn-1Dzcpg8S-42" target="flWIEQ2DEUn-1Dzcpg8S-43">
          <mxGeometry relative="1" as="geometry" />
        </mxCell>
        <mxCell id="flWIEQ2DEUn-1Dzcpg8S-42" value="send email to confirm pasword change" style="rounded=0;whiteSpace=wrap;html=1;" vertex="1" parent="1">
          <mxGeometry x="450" y="260" width="120" height="40" as="geometry" />
        </mxCell>
        <mxCell id="flWIEQ2DEUn-1Dzcpg8S-47" value="" style="edgeStyle=orthogonalEdgeStyle;rounded=0;orthogonalLoop=1;jettySize=auto;html=1;" edge="1" parent="1" source="flWIEQ2DEUn-1Dzcpg8S-43" target="flWIEQ2DEUn-1Dzcpg8S-46">
          <mxGeometry relative="1" as="geometry" />
        </mxCell>
        <mxCell id="flWIEQ2DEUn-1Dzcpg8S-49" style="edgeStyle=orthogonalEdgeStyle;rounded=0;orthogonalLoop=1;jettySize=auto;html=1;exitX=0.5;exitY=0;exitDx=0;exitDy=0;entryX=0.5;entryY=0;entryDx=0;entryDy=0;" edge="1" parent="1" source="flWIEQ2DEUn-1Dzcpg8S-43" target="flWIEQ2DEUn-1Dzcpg8S-42">
          <mxGeometry relative="1" as="geometry" />
        </mxCell>
        <mxCell id="flWIEQ2DEUn-1Dzcpg8S-43" value="change confirmed?" style="rhombus;whiteSpace=wrap;html=1;" vertex="1" parent="1">
          <mxGeometry x="120" y="240" width="80" height="80" as="geometry" />
        </mxCell>
        <mxCell id="flWIEQ2DEUn-1Dzcpg8S-48" style="edgeStyle=orthogonalEdgeStyle;rounded=0;orthogonalLoop=1;jettySize=auto;html=1;exitX=0.5;exitY=1;exitDx=0;exitDy=0;entryX=0.4;entryY=0.075;entryDx=0;entryDy=0;entryPerimeter=0;" edge="1" parent="1" source="flWIEQ2DEUn-1Dzcpg8S-46" target="flWIEQ2DEUn-1Dzcpg8S-13">
          <mxGeometry relative="1" as="geometry" />
        </mxCell>
        <mxCell id="flWIEQ2DEUn-1Dzcpg8S-46" value="reset pasword" style="whiteSpace=wrap;html=1;" vertex="1" parent="1">
          <mxGeometry x="120" y="400" width="80" height="40" as="geometry" />
        </mxCell>
        <mxCell id="flWIEQ2DEUn-1Dzcpg8S-50" value="no" style="text;html=1;strokeColor=none;fillColor=none;align=center;verticalAlign=middle;whiteSpace=wrap;rounded=0;" vertex="1" parent="1">
          <mxGeometry x="290" y="190" width="60" height="30" as="geometry" />
        </mxCell>
        <mxCell id="flWIEQ2DEUn-1Dzcpg8S-52" value="yes" style="text;html=1;strokeColor=none;fillColor=none;align=center;verticalAlign=middle;whiteSpace=wrap;rounded=0;" vertex="1" parent="1">
          <mxGeometry x="110" y="340" width="60" height="30" as="geometry" />
        </mxCell>
        <mxCell id="flWIEQ2DEUn-1Dzcpg8S-54" value="yes" style="text;html=1;strokeColor=none;fillColor=none;align=center;verticalAlign=middle;whiteSpace=wrap;rounded=0;" vertex="1" parent="1">
          <mxGeometry x="270" y="330" width="60" height="30" as="geometry" />
        </mxCell>
      </root>
    </mxGraphModel>
  </diagram>
</mxfile>
